<svg xmlns="http://www.w3.org/2000/svg" viewBox="0 0 512 512"><path fill="#d4d4d4" d="M458.667 85.333H256c-1.145 0-2.282.18-3.371.533l-2.56.853c-5.59 1.86-8.614 7.899-6.754 13.488l.034.101L350.57 413.631l-70.613 80.683c-3.876 4.436-3.423 11.175 1.013 15.051a10.662 10.662 0 007.029 2.634h170.667C488.122 512 512 488.122 512 458.667v-320c0-29.456-23.878-53.334-53.333-53.334z"/><path fill="#1976d2" d="M372.373 411.584a10.667 10.667 0 00-9.707-6.251H256c-5.891 0-10.667 4.776-10.667 10.667 0 1.282.231 2.554.683 3.755l32 85.333a10.666 10.666 0 008.085 6.741c.627.108 1.262.165 1.899.171a10.665 10.665 0 008.021-3.648l74.667-85.333a10.667 10.667 0 001.685-11.435z"/><g fill="#1c2125"><path d="M458.667 234.667H309.333c-5.891 0-10.667-4.776-10.667-10.667s4.776-10.667 10.667-10.667h149.333c5.891 0 10.667 4.776 10.667 10.667s-4.775 10.667-10.666 10.667z"/><path d="M373.333 234.667c-5.891 0-10.667-4.776-10.667-10.667v-21.333c0-5.891 4.776-10.667 10.667-10.667S384 196.776 384 202.667V224c0 5.891-4.776 10.667-10.667 10.667zM341.333 362.667c-5.891-.005-10.663-4.785-10.657-10.676a10.666 10.666 0 014.471-8.673C381.867 310.123 416 242.453 416 224c0-5.891 4.776-10.667 10.667-10.667s10.667 4.776 10.667 10.667c0 28.117-41.109 102.101-89.813 136.683a10.677 10.677 0 01-6.188 1.984z"/><path d="M426.667 384a10.668 10.668 0 01-7.211-2.795c-7.723-7.083-75.904-70.059-88-99.861-2.221-5.461.406-11.688 5.867-13.909s11.688.406 13.909 5.867c8.725 21.504 62.635 73.813 82.667 92.139 4.359 3.962 4.681 10.708.719 15.068a10.672 10.672 0 01-7.951 3.491z"/></g><path fill="#2196f3" d="M372.757 412.544L234.091 7.211A10.667 10.667 0 00224 0H53.333C23.878 0 0 23.878 0 53.333v320c0 29.455 23.878 53.333 53.333 53.333h309.333c5.891 0 10.666-4.776 10.666-10.667a10.635 10.635 0 00-.575-3.455z"/><g fill="#fafafa"><path d="M202.667 298.667a10.665 10.665 0 01-10.048-7.083l-43.285-121.216-43.285 121.216c-2.203 5.464-8.418 8.107-13.882 5.904a10.666 10.666 0 01-6.193-13.072l53.333-149.333c2.609-5.543 9.218-7.922 14.761-5.314a11.098 11.098 0 015.314 5.314l53.333 149.333c1.986 5.531-.876 11.627-6.4 13.632a10.798 10.798 0 01-3.648.619z"/><path d="M170.667 234.667H128c-5.891 0-10.667-4.776-10.667-10.667s4.776-10.667 10.667-10.667h42.667c5.891 0 10.667 4.776 10.667 10.667-.001 5.891-4.776 10.667-10.667 10.667z"/></g></svg>